<?xml version="1.0" encoding="iso-8859-1"?>
<!-- Generator: Adobe Illustrator 19.0.0, SVG Export Plug-In . SVG Version: 6.00 Build 0)  -->
<svg version="1.1" id="Layer_1" xmlns="http://www.w3.org/2000/svg" xmlns:xlink="http://www.w3.org/1999/xlink" x="0px" y="0px"
	 viewBox="0 0 512 512" style="enable-background:new 0 0 512 512;" xml:space="preserve">
<circle style="fill:#FFEDB5;" cx="256" cy="256" r="256"/>
<path style="fill:#FEE187;" d="M512,256c0-2.874-0.066-5.732-0.159-8.583L403.73,139.305l-62.971,71.011l9.78,9.78L125.714,382.304
	l129.689,129.689c0.2,0,0.398,0.007,0.596,0.007C397.384,512,512,397.384,512,256z"/>
<path style="fill:#E09112;" d="M136.494,387.494h239.013c7.627,0,13.808-6.182,13.808-13.808V168.002
	c0-7.627-6.182-13.808-13.808-13.808H136.494c-7.627,0-13.808,6.182-13.808,13.808v205.684
	C122.685,381.312,128.867,387.494,136.494,387.494z"/>
<path style="fill:#C47B10;" d="M375.506,154.193H256v233.301h119.506c7.627,0,13.808-6.182,13.808-13.808V168.002
	C389.315,160.375,383.133,154.193,375.506,154.193z"/>
<path style="fill:#FF5419;" d="M104.296,194.991h303.407v-45.452c0-8.411-6.818-15.229-15.227-15.229H119.525
	c-8.411,0-15.229,6.818-15.229,15.229V194.991z"/>
<path style="fill:#C92F00;" d="M407.704,149.538c0-8.411-6.818-15.227-15.227-15.227H256v60.681h151.704V149.538z"/>
<path style="fill:#FF5419;" d="M223.878,271.303h64.243c4.601,0,8.332-3.731,8.332-8.333v-23.79c0-4.601-3.731-8.332-8.332-8.332
	h-64.243c-4.601,0-8.333,3.731-8.333,8.332v23.79C215.545,267.573,219.276,271.303,223.878,271.303z"/>
<path style="fill:#C92F00;" d="M288.122,230.848H256v40.455h32.122c4.601,0,8.332-3.731,8.332-8.332v-23.79
	C296.455,234.579,292.724,230.848,288.122,230.848z"/>
<g>
</g>
<g>
</g>
<g>
</g>
<g>
</g>
<g>
</g>
<g>
</g>
<g>
</g>
<g>
</g>
<g>
</g>
<g>
</g>
<g>
</g>
<g>
</g>
<g>
</g>
<g>
</g>
<g>
</g>
</svg>
